<svg width="32" height="32" viewBox="0 0 32 32" fill="none" xmlns="http://www.w3.org/2000/svg">
<circle cx="16" cy="16" r="16" fill="white"/>
<path d="M11.8294 20.1777C11.7753 20.2659 11.7256 20.4954 11.9593 20.7072L11.8943 21.6007H12.511L12.3812 20.7402C12.4894 20.6189 12.6603 20.3233 12.4786 20.1115C12.2514 19.8467 11.8708 19.946 11.8294 20.1777Z" fill="#5455AE"/>
<path fill-rule="evenodd" clip-rule="evenodd" d="M8.48633 23.9502V13.6584C8.67025 13.3827 9.29776 12.7848 9.94691 12.7318C10.7583 12.6657 12.8031 12.5002 13.7769 13.1951C14.7506 13.8901 15.5945 15.1145 15.3348 16.3389C15.1271 17.3185 14.5342 17.9384 14.2637 18.1259C14.8912 18.4238 16.1527 19.3305 16.1787 20.5748C16.2112 22.1301 15.6919 23.8179 13.2251 23.9502H8.48633ZM10.6285 17.2986V14.5519H11.7321C12.154 14.5519 13.3874 14.5519 13.29 16.0742C13.2121 17.292 11.4832 17.3979 10.6285 17.2986ZM10.6285 22.3287V19.2842H11.7321C12.6084 19.2842 12.8356 19.2842 13.4523 19.7475C14.069 20.2108 14.1014 21.3359 13.647 21.8985C13.2835 22.3485 11.4832 22.3728 10.6285 22.3287Z" fill="#5455AE"/>
<path fill-rule="evenodd" clip-rule="evenodd" d="M18.0364 23.9779H20.4549V19.355C20.5874 19.202 20.9651 18.896 21.4157 18.896C21.4251 18.896 21.435 18.896 21.4454 18.896C22.0611 18.8966 24.4748 18.8988 25.1264 17.1255C25.789 15.3223 25.0601 13.5518 23.9668 13.1583C23.8674 13.0053 23.4301 12.6862 22.4759 12.6338C21.5217 12.5813 19.1628 12.6119 18.1026 12.6338L18.0364 20.6009V23.9779ZM20.4549 14.4698V16.9944C20.7752 17.0381 22.3102 16.9944 22.3102 16.9944C23.1584 16.8895 23.3704 16.2621 23.3042 15.9124C23.3042 15.5081 23.2379 14.6993 22.4759 14.5026C21.8519 14.3415 20.4549 14.4698 20.4549 14.4698Z" fill="#5455AE"/>
<path d="M21.1001 18.8683C20.6141 18.8136 19.5164 18.7502 19.0128 18.9338C18.5092 19.1174 18.0962 19.7754 17.9526 20.0814V23.9174H20.3049V19.2945C20.4595 19.1524 20.835 18.8683 21.1001 18.8683Z" fill="#FCB512"/>
<path d="M17.9856 14.3765H20.3379V17.0322C19.6642 17.1743 18.2506 17.8519 17.9856 19.4257V14.3765Z" fill="#FCB512"/>
<path d="M5.93326 11.116C5.73642 11.5774 5.65113 12.5198 6.88462 12.5989L16.0374 6.53558L25.3542 12.6648C25.8244 12.6868 26.6533 12.4078 26.2071 11.116L23.1234 9.00705L23.0906 5.74471C23.0906 5.0527 22.7297 5.1186 21.9096 5.1186C21.2207 5.1186 20.827 5.0527 20.827 5.74471V7.45826C19.4054 6.4477 16.477 4.43318 16.1358 4.45955C15.7946 4.48591 15.3813 4.73415 15.2172 4.85498L5.93326 11.116Z" fill="#5455AE"/>
</svg>
